G04 #@! TF.FileFunction,Legend,Bot*
%FSLAX46Y46*%
G04 Gerber Fmt 4.6, Leading zero omitted, Abs format (unit mm)*
G04 Created by KiCad (PCBNEW 4.0.2-4+6225~38~ubuntu14.04.1-stable) date Tue 01 Mar 2016 01:49:07 PM PST*
%MOMM*%
G01*
G04 APERTURE LIST*
%ADD10C,0.100000*%
%ADD11C,0.150000*%
%ADD12C,2.711400*%
%ADD13R,1.900000X1.650000*%
%ADD14R,1.650000X1.900000*%
%ADD15C,2.398980*%
%ADD16R,2.432000X2.127200*%
%ADD17O,2.432000X2.127200*%
%ADD18O,1.901140X2.899360*%
%ADD19R,2.940000X2.940000*%
%ADD20O,2.940000X2.940000*%
%ADD21C,2.400000*%
%ADD22O,2.400000X2.600000*%
G04 APERTURE END LIST*
D10*
D11*
X80256000Y-78701000D02*
X79256000Y-78701000D01*
X79256000Y-77001000D02*
X80256000Y-77001000D01*
X80129000Y-82257000D02*
X79129000Y-82257000D01*
X79129000Y-80557000D02*
X80129000Y-80557000D01*
X87257000Y-81192000D02*
X88257000Y-81192000D01*
X88257000Y-82892000D02*
X87257000Y-82892000D01*
X84670000Y-79002000D02*
X84670000Y-80002000D01*
X82970000Y-80002000D02*
X82970000Y-79002000D01*
X80875047Y-80308143D02*
X80922666Y-80355762D01*
X81065523Y-80403381D01*
X81160761Y-80403381D01*
X81303619Y-80355762D01*
X81398857Y-80260524D01*
X81446476Y-80165286D01*
X81494095Y-79974810D01*
X81494095Y-79831952D01*
X81446476Y-79641476D01*
X81398857Y-79546238D01*
X81303619Y-79451000D01*
X81160761Y-79403381D01*
X81065523Y-79403381D01*
X80922666Y-79451000D01*
X80875047Y-79498619D01*
X80494095Y-79498619D02*
X80446476Y-79451000D01*
X80351238Y-79403381D01*
X80113142Y-79403381D01*
X80017904Y-79451000D01*
X79970285Y-79498619D01*
X79922666Y-79593857D01*
X79922666Y-79689095D01*
X79970285Y-79831952D01*
X80541714Y-80403381D01*
X79922666Y-80403381D01*
X79303619Y-79403381D02*
X79208380Y-79403381D01*
X79113142Y-79451000D01*
X79065523Y-79498619D01*
X79017904Y-79593857D01*
X78970285Y-79784333D01*
X78970285Y-80022429D01*
X79017904Y-80212905D01*
X79065523Y-80308143D01*
X79113142Y-80355762D01*
X79208380Y-80403381D01*
X79303619Y-80403381D01*
X79398857Y-80355762D01*
X79446476Y-80308143D01*
X79494095Y-80212905D01*
X79541714Y-80022429D01*
X79541714Y-79784333D01*
X79494095Y-79593857D01*
X79446476Y-79498619D01*
X79398857Y-79451000D01*
X79303619Y-79403381D01*
X78017904Y-80403381D02*
X78589333Y-80403381D01*
X78303619Y-80403381D02*
X78303619Y-79403381D01*
X78398857Y-79546238D01*
X78494095Y-79641476D01*
X78589333Y-79689095D01*
X80748047Y-83864143D02*
X80795666Y-83911762D01*
X80938523Y-83959381D01*
X81033761Y-83959381D01*
X81176619Y-83911762D01*
X81271857Y-83816524D01*
X81319476Y-83721286D01*
X81367095Y-83530810D01*
X81367095Y-83387952D01*
X81319476Y-83197476D01*
X81271857Y-83102238D01*
X81176619Y-83007000D01*
X81033761Y-82959381D01*
X80938523Y-82959381D01*
X80795666Y-83007000D01*
X80748047Y-83054619D01*
X80414714Y-82959381D02*
X79795666Y-82959381D01*
X80129000Y-83340333D01*
X79986142Y-83340333D01*
X79890904Y-83387952D01*
X79843285Y-83435571D01*
X79795666Y-83530810D01*
X79795666Y-83768905D01*
X79843285Y-83864143D01*
X79890904Y-83911762D01*
X79986142Y-83959381D01*
X80271857Y-83959381D01*
X80367095Y-83911762D01*
X80414714Y-83864143D01*
X79176619Y-82959381D02*
X79081380Y-82959381D01*
X78986142Y-83007000D01*
X78938523Y-83054619D01*
X78890904Y-83149857D01*
X78843285Y-83340333D01*
X78843285Y-83578429D01*
X78890904Y-83768905D01*
X78938523Y-83864143D01*
X78986142Y-83911762D01*
X79081380Y-83959381D01*
X79176619Y-83959381D01*
X79271857Y-83911762D01*
X79319476Y-83864143D01*
X79367095Y-83768905D01*
X79414714Y-83578429D01*
X79414714Y-83340333D01*
X79367095Y-83149857D01*
X79319476Y-83054619D01*
X79271857Y-83007000D01*
X79176619Y-82959381D01*
X77890904Y-83959381D02*
X78462333Y-83959381D01*
X78176619Y-83959381D02*
X78176619Y-82959381D01*
X78271857Y-83102238D01*
X78367095Y-83197476D01*
X78462333Y-83245095D01*
X88876047Y-80299143D02*
X88923666Y-80346762D01*
X89066523Y-80394381D01*
X89161761Y-80394381D01*
X89304619Y-80346762D01*
X89399857Y-80251524D01*
X89447476Y-80156286D01*
X89495095Y-79965810D01*
X89495095Y-79822952D01*
X89447476Y-79632476D01*
X89399857Y-79537238D01*
X89304619Y-79442000D01*
X89161761Y-79394381D01*
X89066523Y-79394381D01*
X88923666Y-79442000D01*
X88876047Y-79489619D01*
X88018904Y-79727714D02*
X88018904Y-80394381D01*
X88257000Y-79346762D02*
X88495095Y-80061048D01*
X87876047Y-80061048D01*
X87304619Y-79394381D02*
X87209380Y-79394381D01*
X87114142Y-79442000D01*
X87066523Y-79489619D01*
X87018904Y-79584857D01*
X86971285Y-79775333D01*
X86971285Y-80013429D01*
X87018904Y-80203905D01*
X87066523Y-80299143D01*
X87114142Y-80346762D01*
X87209380Y-80394381D01*
X87304619Y-80394381D01*
X87399857Y-80346762D01*
X87447476Y-80299143D01*
X87495095Y-80203905D01*
X87542714Y-80013429D01*
X87542714Y-79775333D01*
X87495095Y-79584857D01*
X87447476Y-79489619D01*
X87399857Y-79442000D01*
X87304619Y-79394381D01*
X86018904Y-80394381D02*
X86590333Y-80394381D01*
X86304619Y-80394381D02*
X86304619Y-79394381D01*
X86399857Y-79537238D01*
X86495095Y-79632476D01*
X86590333Y-79680095D01*
X86277143Y-78382953D02*
X86324762Y-78335334D01*
X86372381Y-78192477D01*
X86372381Y-78097239D01*
X86324762Y-77954381D01*
X86229524Y-77859143D01*
X86134286Y-77811524D01*
X85943810Y-77763905D01*
X85800952Y-77763905D01*
X85610476Y-77811524D01*
X85515238Y-77859143D01*
X85420000Y-77954381D01*
X85372381Y-78097239D01*
X85372381Y-78192477D01*
X85420000Y-78335334D01*
X85467619Y-78382953D01*
X85705714Y-79240096D02*
X86372381Y-79240096D01*
X85324762Y-79002000D02*
X86039048Y-78763905D01*
X86039048Y-79382953D01*
X85372381Y-79954381D02*
X85372381Y-80049620D01*
X85420000Y-80144858D01*
X85467619Y-80192477D01*
X85562857Y-80240096D01*
X85753333Y-80287715D01*
X85991429Y-80287715D01*
X86181905Y-80240096D01*
X86277143Y-80192477D01*
X86324762Y-80144858D01*
X86372381Y-80049620D01*
X86372381Y-79954381D01*
X86324762Y-79859143D01*
X86277143Y-79811524D01*
X86181905Y-79763905D01*
X85991429Y-79716286D01*
X85753333Y-79716286D01*
X85562857Y-79763905D01*
X85467619Y-79811524D01*
X85420000Y-79859143D01*
X85372381Y-79954381D01*
X85467619Y-80668667D02*
X85420000Y-80716286D01*
X85372381Y-80811524D01*
X85372381Y-81049620D01*
X85420000Y-81144858D01*
X85467619Y-81192477D01*
X85562857Y-81240096D01*
X85658095Y-81240096D01*
X85800952Y-81192477D01*
X86372381Y-80621048D01*
X86372381Y-81240096D01*
%LPC*%
D12*
X72136000Y-64008000D03*
X97536000Y-64008000D03*
D13*
X78506000Y-77851000D03*
X81006000Y-77851000D03*
X78379000Y-81407000D03*
X80879000Y-81407000D03*
X89007000Y-82042000D03*
X86507000Y-82042000D03*
D14*
X83820000Y-80752000D03*
X83820000Y-78252000D03*
D15*
X83312000Y-71247000D03*
X93918602Y-81853602D03*
D16*
X95123000Y-89789000D03*
D17*
X95123000Y-87249000D03*
X95123000Y-84709000D03*
D18*
X84709000Y-67945000D03*
X82169000Y-67945000D03*
X87249000Y-67945000D03*
D19*
X101346000Y-96139000D03*
D20*
X101346000Y-91059000D03*
D19*
X101346000Y-84836000D03*
D20*
X101346000Y-79756000D03*
D21*
X81320000Y-95758000D03*
X83820000Y-95758000D03*
X86320000Y-95758000D03*
D22*
X88920000Y-92458000D03*
X78720000Y-92458000D03*
D21*
X67985000Y-95885000D03*
X70485000Y-95885000D03*
X72985000Y-95885000D03*
D22*
X75585000Y-92585000D03*
X65385000Y-92585000D03*
M02*
