G04 #@! TF.FileFunction,Copper,L2,Bot,Signal*
%FSLAX46Y46*%
G04 Gerber Fmt 4.6, Leading zero omitted, Abs format (unit mm)*
G04 Created by KiCad (PCBNEW 4.0.2-4+6225~38~ubuntu14.04.1-stable) date Tue 01 Mar 2016 01:49:07 PM PST*
%MOMM*%
G01*
G04 APERTURE LIST*
%ADD10C,0.100000*%
%ADD11R,1.500000X1.250000*%
%ADD12R,1.250000X1.500000*%
%ADD13C,1.998980*%
%ADD14R,2.032000X1.727200*%
%ADD15O,2.032000X1.727200*%
%ADD16O,1.501140X2.499360*%
%ADD17R,2.540000X2.540000*%
%ADD18O,2.540000X2.540000*%
%ADD19C,2.000000*%
%ADD20C,1.143000*%
%ADD21C,0.600000*%
%ADD22C,0.609600*%
%ADD23C,0.250000*%
%ADD24C,0.254000*%
G04 APERTURE END LIST*
D10*
D11*
X78506000Y-77851000D03*
X81006000Y-77851000D03*
X78379000Y-81407000D03*
X80879000Y-81407000D03*
X89007000Y-82042000D03*
X86507000Y-82042000D03*
D12*
X83820000Y-80752000D03*
X83820000Y-78252000D03*
D13*
X83312000Y-71247000D03*
X93918602Y-81853602D03*
D14*
X95123000Y-89789000D03*
D15*
X95123000Y-87249000D03*
X95123000Y-84709000D03*
D16*
X84709000Y-67945000D03*
X82169000Y-67945000D03*
X87249000Y-67945000D03*
D17*
X101346000Y-96139000D03*
D18*
X101346000Y-91059000D03*
D17*
X101346000Y-84836000D03*
D18*
X101346000Y-79756000D03*
D19*
X81320000Y-95758000D03*
X83820000Y-95758000D03*
X86320000Y-95758000D03*
X67985000Y-95885000D03*
X70485000Y-95885000D03*
X72985000Y-95885000D03*
D20*
X70993000Y-89662000D03*
X80010000Y-79756000D03*
X76327000Y-80772000D03*
X91821000Y-94488000D03*
X70739000Y-85598000D03*
X68199000Y-80010000D03*
X88900000Y-85852000D03*
X80010000Y-86106000D03*
D21*
X91567000Y-82550000D03*
D22*
X78379000Y-81407000D02*
X78379000Y-81387000D01*
X78379000Y-81387000D02*
X80010000Y-79756000D01*
X78506000Y-77851000D02*
X78506000Y-78252000D01*
X78506000Y-78252000D02*
X80010000Y-79756000D01*
X76327000Y-88265000D02*
X76327000Y-80772000D01*
X75184000Y-89408000D02*
X76327000Y-88265000D01*
X71247000Y-89408000D02*
X75184000Y-89408000D01*
X70993000Y-89662000D02*
X71247000Y-89408000D01*
X83820000Y-80752000D02*
X82530000Y-80752000D01*
X81534000Y-79756000D02*
X80010000Y-79756000D01*
X82530000Y-80752000D02*
X81534000Y-79756000D01*
X76327000Y-80264000D02*
X76835000Y-79756000D01*
X76327000Y-80772000D02*
X76327000Y-80264000D01*
X76835000Y-79756000D02*
X80010000Y-79756000D01*
X83820000Y-78252000D02*
X81407000Y-78252000D01*
X81407000Y-78252000D02*
X81006000Y-77851000D01*
X70739000Y-85598000D02*
X70739000Y-85471000D01*
D23*
X89007000Y-82042000D02*
X91059000Y-82042000D01*
X91059000Y-82042000D02*
X91567000Y-82550000D01*
D24*
G36*
X104990000Y-98843000D02*
X64710000Y-98843000D01*
X64710000Y-96208795D01*
X66349716Y-96208795D01*
X66598106Y-96809943D01*
X67057637Y-97270278D01*
X67658352Y-97519716D01*
X68308795Y-97520284D01*
X68909943Y-97271894D01*
X69235164Y-96947241D01*
X69557637Y-97270278D01*
X70158352Y-97519716D01*
X70808795Y-97520284D01*
X71409943Y-97271894D01*
X71644715Y-97037532D01*
X72012073Y-97037532D01*
X72110736Y-97304387D01*
X72720461Y-97530908D01*
X73370460Y-97506856D01*
X73859264Y-97304387D01*
X73957927Y-97037532D01*
X72985000Y-96064605D01*
X72012073Y-97037532D01*
X71644715Y-97037532D01*
X71826752Y-96855813D01*
X71832468Y-96857927D01*
X72805395Y-95885000D01*
X73164605Y-95885000D01*
X74137532Y-96857927D01*
X74404387Y-96759264D01*
X74630908Y-96149539D01*
X74628402Y-96081795D01*
X79684716Y-96081795D01*
X79933106Y-96682943D01*
X80392637Y-97143278D01*
X80993352Y-97392716D01*
X81643795Y-97393284D01*
X82244943Y-97144894D01*
X82570164Y-96820241D01*
X82892637Y-97143278D01*
X83493352Y-97392716D01*
X84143795Y-97393284D01*
X84744943Y-97144894D01*
X84979715Y-96910532D01*
X85347073Y-96910532D01*
X85445736Y-97177387D01*
X86055461Y-97403908D01*
X86705460Y-97379856D01*
X87194264Y-97177387D01*
X87292927Y-96910532D01*
X86320000Y-95937605D01*
X85347073Y-96910532D01*
X84979715Y-96910532D01*
X85161752Y-96728813D01*
X85167468Y-96730927D01*
X86140395Y-95758000D01*
X86499605Y-95758000D01*
X87472532Y-96730927D01*
X87739387Y-96632264D01*
X87816481Y-96424750D01*
X99441000Y-96424750D01*
X99441000Y-97535309D01*
X99537673Y-97768698D01*
X99716301Y-97947327D01*
X99949690Y-98044000D01*
X101060250Y-98044000D01*
X101219000Y-97885250D01*
X101219000Y-96266000D01*
X101473000Y-96266000D01*
X101473000Y-97885250D01*
X101631750Y-98044000D01*
X102742310Y-98044000D01*
X102975699Y-97947327D01*
X103154327Y-97768698D01*
X103251000Y-97535309D01*
X103251000Y-96424750D01*
X103092250Y-96266000D01*
X101473000Y-96266000D01*
X101219000Y-96266000D01*
X99599750Y-96266000D01*
X99441000Y-96424750D01*
X87816481Y-96424750D01*
X87965908Y-96022539D01*
X87941856Y-95372540D01*
X87739387Y-94883736D01*
X87472532Y-94785073D01*
X86499605Y-95758000D01*
X86140395Y-95758000D01*
X85167468Y-94785073D01*
X85161278Y-94787361D01*
X84979703Y-94605468D01*
X85347073Y-94605468D01*
X86320000Y-95578395D01*
X87155704Y-94742691D01*
X99441000Y-94742691D01*
X99441000Y-95853250D01*
X99599750Y-96012000D01*
X101219000Y-96012000D01*
X101219000Y-94392750D01*
X101473000Y-94392750D01*
X101473000Y-96012000D01*
X103092250Y-96012000D01*
X103251000Y-95853250D01*
X103251000Y-94742691D01*
X103154327Y-94509302D01*
X102975699Y-94330673D01*
X102742310Y-94234000D01*
X101631750Y-94234000D01*
X101473000Y-94392750D01*
X101219000Y-94392750D01*
X101060250Y-94234000D01*
X99949690Y-94234000D01*
X99716301Y-94330673D01*
X99537673Y-94509302D01*
X99441000Y-94742691D01*
X87155704Y-94742691D01*
X87292927Y-94605468D01*
X87194264Y-94338613D01*
X86584539Y-94112092D01*
X85934540Y-94136144D01*
X85445736Y-94338613D01*
X85347073Y-94605468D01*
X84979703Y-94605468D01*
X84747363Y-94372722D01*
X84146648Y-94123284D01*
X83496205Y-94122716D01*
X82895057Y-94371106D01*
X82569836Y-94695759D01*
X82247363Y-94372722D01*
X81646648Y-94123284D01*
X80996205Y-94122716D01*
X80395057Y-94371106D01*
X79934722Y-94830637D01*
X79685284Y-95431352D01*
X79684716Y-96081795D01*
X74628402Y-96081795D01*
X74606856Y-95499540D01*
X74404387Y-95010736D01*
X74137532Y-94912073D01*
X73164605Y-95885000D01*
X72805395Y-95885000D01*
X71832468Y-94912073D01*
X71826278Y-94914361D01*
X71644703Y-94732468D01*
X72012073Y-94732468D01*
X72985000Y-95705395D01*
X73957927Y-94732468D01*
X73859264Y-94465613D01*
X73249539Y-94239092D01*
X72599540Y-94263144D01*
X72110736Y-94465613D01*
X72012073Y-94732468D01*
X71644703Y-94732468D01*
X71412363Y-94499722D01*
X70811648Y-94250284D01*
X70161205Y-94249716D01*
X69560057Y-94498106D01*
X69234836Y-94822759D01*
X68912363Y-94499722D01*
X68311648Y-94250284D01*
X67661205Y-94249716D01*
X67060057Y-94498106D01*
X66599722Y-94957637D01*
X66350284Y-95558352D01*
X66349716Y-96208795D01*
X64710000Y-96208795D01*
X64710000Y-94196584D01*
X64759313Y-94229534D01*
X65385000Y-94353991D01*
X66010687Y-94229534D01*
X66541120Y-93875111D01*
X66895543Y-93344678D01*
X67020000Y-92718991D01*
X67020000Y-92451009D01*
X73950000Y-92451009D01*
X73950000Y-92718991D01*
X74074457Y-93344678D01*
X74428880Y-93875111D01*
X74959313Y-94229534D01*
X75585000Y-94353991D01*
X76210687Y-94229534D01*
X76741120Y-93875111D01*
X77095543Y-93344678D01*
X77165131Y-92994836D01*
X77209457Y-93217678D01*
X77563880Y-93748111D01*
X78094313Y-94102534D01*
X78720000Y-94226991D01*
X79345687Y-94102534D01*
X79876120Y-93748111D01*
X80230543Y-93217678D01*
X80355000Y-92591991D01*
X80355000Y-92324009D01*
X87285000Y-92324009D01*
X87285000Y-92591991D01*
X87409457Y-93217678D01*
X87763880Y-93748111D01*
X88294313Y-94102534D01*
X88920000Y-94226991D01*
X89545687Y-94102534D01*
X90076120Y-93748111D01*
X90430543Y-93217678D01*
X90555000Y-92591991D01*
X90555000Y-92324009D01*
X90430543Y-91698322D01*
X90076120Y-91167889D01*
X89545687Y-90813466D01*
X88920000Y-90689009D01*
X88294313Y-90813466D01*
X87763880Y-91167889D01*
X87409457Y-91698322D01*
X87285000Y-92324009D01*
X80355000Y-92324009D01*
X80230543Y-91698322D01*
X79876120Y-91167889D01*
X79345687Y-90813466D01*
X78720000Y-90689009D01*
X78094313Y-90813466D01*
X77563880Y-91167889D01*
X77209457Y-91698322D01*
X77139869Y-92048164D01*
X77095543Y-91825322D01*
X76741120Y-91294889D01*
X76210687Y-90940466D01*
X75585000Y-90816009D01*
X74959313Y-90940466D01*
X74428880Y-91294889D01*
X74074457Y-91825322D01*
X73950000Y-92451009D01*
X67020000Y-92451009D01*
X66895543Y-91825322D01*
X66541120Y-91294889D01*
X66010687Y-90940466D01*
X65385000Y-90816009D01*
X64759313Y-90940466D01*
X64710000Y-90973416D01*
X64710000Y-89900935D01*
X69786291Y-89900935D01*
X69969582Y-90344535D01*
X70308680Y-90684225D01*
X70751959Y-90868290D01*
X71231935Y-90868709D01*
X71675535Y-90685418D01*
X72013742Y-90347800D01*
X75184000Y-90347800D01*
X75543646Y-90276262D01*
X75848539Y-90072539D01*
X76991539Y-88929539D01*
X77195262Y-88624646D01*
X77266800Y-88265000D01*
X77266800Y-84709000D01*
X93439655Y-84709000D01*
X93553729Y-85282489D01*
X93878585Y-85768670D01*
X94193366Y-85979000D01*
X93878585Y-86189330D01*
X93553729Y-86675511D01*
X93439655Y-87249000D01*
X93553729Y-87822489D01*
X93878585Y-88308670D01*
X93892913Y-88318243D01*
X93871683Y-88322238D01*
X93655559Y-88461310D01*
X93510569Y-88673510D01*
X93459560Y-88925400D01*
X93459560Y-90652600D01*
X93503838Y-90887917D01*
X93642910Y-91104041D01*
X93855110Y-91249031D01*
X94107000Y-91300040D01*
X96139000Y-91300040D01*
X96374317Y-91255762D01*
X96590441Y-91116690D01*
X96655359Y-91021679D01*
X99441000Y-91021679D01*
X99441000Y-91096321D01*
X99586009Y-91825333D01*
X99998962Y-92443359D01*
X100616988Y-92856312D01*
X101346000Y-93001321D01*
X102075012Y-92856312D01*
X102693038Y-92443359D01*
X103105991Y-91825333D01*
X103251000Y-91096321D01*
X103251000Y-91021679D01*
X103105991Y-90292667D01*
X102693038Y-89674641D01*
X102075012Y-89261688D01*
X101346000Y-89116679D01*
X100616988Y-89261688D01*
X99998962Y-89674641D01*
X99586009Y-90292667D01*
X99441000Y-91021679D01*
X96655359Y-91021679D01*
X96735431Y-90904490D01*
X96786440Y-90652600D01*
X96786440Y-88925400D01*
X96742162Y-88690083D01*
X96603090Y-88473959D01*
X96390890Y-88328969D01*
X96349561Y-88320600D01*
X96367415Y-88308670D01*
X96692271Y-87822489D01*
X96806345Y-87249000D01*
X96692271Y-86675511D01*
X96367415Y-86189330D01*
X96052634Y-85979000D01*
X96367415Y-85768670D01*
X96692271Y-85282489D01*
X96806345Y-84709000D01*
X96692271Y-84135511D01*
X96367415Y-83649330D01*
X96242703Y-83566000D01*
X99428560Y-83566000D01*
X99428560Y-86106000D01*
X99472838Y-86341317D01*
X99611910Y-86557441D01*
X99824110Y-86702431D01*
X100076000Y-86753440D01*
X102616000Y-86753440D01*
X102851317Y-86709162D01*
X103067441Y-86570090D01*
X103212431Y-86357890D01*
X103263440Y-86106000D01*
X103263440Y-83566000D01*
X103219162Y-83330683D01*
X103080090Y-83114559D01*
X102867890Y-82969569D01*
X102616000Y-82918560D01*
X100076000Y-82918560D01*
X99840683Y-82962838D01*
X99624559Y-83101910D01*
X99479569Y-83314110D01*
X99428560Y-83566000D01*
X96242703Y-83566000D01*
X95881234Y-83324474D01*
X95307745Y-83210400D01*
X94938255Y-83210400D01*
X94837520Y-83230437D01*
X94895105Y-83204048D01*
X95337566Y-82727560D01*
X95539943Y-82238980D01*
X95421006Y-81980602D01*
X94045602Y-81980602D01*
X94045602Y-83356006D01*
X94206636Y-83430133D01*
X93878585Y-83649330D01*
X93553729Y-84135511D01*
X93439655Y-84709000D01*
X77266800Y-84709000D01*
X77266800Y-82553059D01*
X77377110Y-82628431D01*
X77629000Y-82679440D01*
X79129000Y-82679440D01*
X79364317Y-82635162D01*
X79580441Y-82496090D01*
X79626969Y-82427994D01*
X79769302Y-82570327D01*
X80002691Y-82667000D01*
X80593250Y-82667000D01*
X80752000Y-82508250D01*
X80752000Y-81534000D01*
X80732000Y-81534000D01*
X80732000Y-81280000D01*
X80752000Y-81280000D01*
X80752000Y-81260000D01*
X81006000Y-81260000D01*
X81006000Y-81280000D01*
X81026000Y-81280000D01*
X81026000Y-81534000D01*
X81006000Y-81534000D01*
X81006000Y-82508250D01*
X81164750Y-82667000D01*
X81755309Y-82667000D01*
X81988698Y-82570327D01*
X82167327Y-82391699D01*
X82193815Y-82327750D01*
X85122000Y-82327750D01*
X85122000Y-82793310D01*
X85218673Y-83026699D01*
X85397302Y-83205327D01*
X85630691Y-83302000D01*
X86221250Y-83302000D01*
X86380000Y-83143250D01*
X86380000Y-82169000D01*
X85280750Y-82169000D01*
X85122000Y-82327750D01*
X82193815Y-82327750D01*
X82264000Y-82158310D01*
X82264000Y-81692750D01*
X82196766Y-81625516D01*
X82530000Y-81691800D01*
X82583273Y-81691800D01*
X82591838Y-81737317D01*
X82730910Y-81953441D01*
X82943110Y-82098431D01*
X83195000Y-82149440D01*
X84445000Y-82149440D01*
X84680317Y-82105162D01*
X84896441Y-81966090D01*
X85041431Y-81753890D01*
X85092440Y-81502000D01*
X85092440Y-81290690D01*
X85122000Y-81290690D01*
X85122000Y-81756250D01*
X85280750Y-81915000D01*
X86380000Y-81915000D01*
X86380000Y-80940750D01*
X86634000Y-80940750D01*
X86634000Y-81915000D01*
X86654000Y-81915000D01*
X86654000Y-82169000D01*
X86634000Y-82169000D01*
X86634000Y-83143250D01*
X86792750Y-83302000D01*
X87383309Y-83302000D01*
X87616698Y-83205327D01*
X87757936Y-83064090D01*
X87792910Y-83118441D01*
X88005110Y-83263431D01*
X88257000Y-83314440D01*
X89757000Y-83314440D01*
X89992317Y-83270162D01*
X90208441Y-83131090D01*
X90353431Y-82918890D01*
X90377102Y-82802000D01*
X90659453Y-82802000D01*
X90773883Y-83078943D01*
X91036673Y-83342192D01*
X91380201Y-83484838D01*
X91752167Y-83485162D01*
X92095943Y-83343117D01*
X92359192Y-83080327D01*
X92501838Y-82736799D01*
X92501883Y-82685489D01*
X92568156Y-82830105D01*
X93044644Y-83272566D01*
X93533224Y-83474943D01*
X93791602Y-83356006D01*
X93791602Y-81980602D01*
X92416198Y-81980602D01*
X92377836Y-82063940D01*
X92360117Y-82021057D01*
X92097327Y-81757808D01*
X91753799Y-81615162D01*
X91706923Y-81615121D01*
X91596401Y-81504599D01*
X91541962Y-81468224D01*
X92297261Y-81468224D01*
X92416198Y-81726602D01*
X93791602Y-81726602D01*
X93791602Y-80351198D01*
X94045602Y-80351198D01*
X94045602Y-81726602D01*
X95421006Y-81726602D01*
X95539943Y-81468224D01*
X95269048Y-80877099D01*
X94792560Y-80434638D01*
X94303980Y-80232261D01*
X94045602Y-80351198D01*
X93791602Y-80351198D01*
X93533224Y-80232261D01*
X92942099Y-80503156D01*
X92499638Y-80979644D01*
X92297261Y-81468224D01*
X91541962Y-81468224D01*
X91349839Y-81339852D01*
X91059000Y-81282000D01*
X90379038Y-81282000D01*
X90360162Y-81181683D01*
X90221090Y-80965559D01*
X90008890Y-80820569D01*
X89757000Y-80769560D01*
X88257000Y-80769560D01*
X88021683Y-80813838D01*
X87805559Y-80952910D01*
X87759031Y-81021006D01*
X87616698Y-80878673D01*
X87383309Y-80782000D01*
X86792750Y-80782000D01*
X86634000Y-80940750D01*
X86380000Y-80940750D01*
X86221250Y-80782000D01*
X85630691Y-80782000D01*
X85397302Y-80878673D01*
X85218673Y-81057301D01*
X85122000Y-81290690D01*
X85092440Y-81290690D01*
X85092440Y-80178782D01*
X99488500Y-80178782D01*
X99791685Y-80857434D01*
X100331501Y-81368403D01*
X100923219Y-81613493D01*
X101219000Y-81497626D01*
X101219000Y-79883000D01*
X101473000Y-79883000D01*
X101473000Y-81497626D01*
X101768781Y-81613493D01*
X102360499Y-81368403D01*
X102900315Y-80857434D01*
X103203500Y-80178782D01*
X103088019Y-79883000D01*
X101473000Y-79883000D01*
X101219000Y-79883000D01*
X99603981Y-79883000D01*
X99488500Y-80178782D01*
X85092440Y-80178782D01*
X85092440Y-80002000D01*
X85048162Y-79766683D01*
X84909090Y-79550559D01*
X84840994Y-79504031D01*
X84983327Y-79361698D01*
X84995123Y-79333218D01*
X99488500Y-79333218D01*
X99603981Y-79629000D01*
X101219000Y-79629000D01*
X101219000Y-78014374D01*
X101473000Y-78014374D01*
X101473000Y-79629000D01*
X103088019Y-79629000D01*
X103203500Y-79333218D01*
X102900315Y-78654566D01*
X102360499Y-78143597D01*
X101768781Y-77898507D01*
X101473000Y-78014374D01*
X101219000Y-78014374D01*
X100923219Y-77898507D01*
X100331501Y-78143597D01*
X99791685Y-78654566D01*
X99488500Y-79333218D01*
X84995123Y-79333218D01*
X85080000Y-79128309D01*
X85080000Y-78537750D01*
X84921250Y-78379000D01*
X83947000Y-78379000D01*
X83947000Y-78399000D01*
X83693000Y-78399000D01*
X83693000Y-78379000D01*
X82718750Y-78379000D01*
X82560000Y-78537750D01*
X82560000Y-79128309D01*
X82656673Y-79361698D01*
X82797910Y-79502936D01*
X82743559Y-79537910D01*
X82703547Y-79596469D01*
X82198539Y-79091461D01*
X82095575Y-79022662D01*
X82115698Y-79014327D01*
X82294327Y-78835699D01*
X82391000Y-78602310D01*
X82391000Y-78136750D01*
X82232250Y-77978000D01*
X81133000Y-77978000D01*
X81133000Y-77998000D01*
X80879000Y-77998000D01*
X80879000Y-77978000D01*
X80859000Y-77978000D01*
X80859000Y-77724000D01*
X80879000Y-77724000D01*
X80879000Y-76749750D01*
X81133000Y-76749750D01*
X81133000Y-77724000D01*
X82232250Y-77724000D01*
X82391000Y-77565250D01*
X82391000Y-77375691D01*
X82560000Y-77375691D01*
X82560000Y-77966250D01*
X82718750Y-78125000D01*
X83693000Y-78125000D01*
X83693000Y-77025750D01*
X83947000Y-77025750D01*
X83947000Y-78125000D01*
X84921250Y-78125000D01*
X85080000Y-77966250D01*
X85080000Y-77375691D01*
X84983327Y-77142302D01*
X84804699Y-76963673D01*
X84571310Y-76867000D01*
X84105750Y-76867000D01*
X83947000Y-77025750D01*
X83693000Y-77025750D01*
X83534250Y-76867000D01*
X83068690Y-76867000D01*
X82835301Y-76963673D01*
X82656673Y-77142302D01*
X82560000Y-77375691D01*
X82391000Y-77375691D01*
X82391000Y-77099690D01*
X82294327Y-76866301D01*
X82115698Y-76687673D01*
X81882309Y-76591000D01*
X81291750Y-76591000D01*
X81133000Y-76749750D01*
X80879000Y-76749750D01*
X80720250Y-76591000D01*
X80129691Y-76591000D01*
X79896302Y-76687673D01*
X79755064Y-76828910D01*
X79720090Y-76774559D01*
X79507890Y-76629569D01*
X79256000Y-76578560D01*
X77756000Y-76578560D01*
X77520683Y-76622838D01*
X77304559Y-76761910D01*
X77159569Y-76974110D01*
X77108560Y-77226000D01*
X77108560Y-78476000D01*
X77152838Y-78711317D01*
X77220328Y-78816200D01*
X76835000Y-78816200D01*
X76475354Y-78887738D01*
X76170461Y-79091461D01*
X75662461Y-79599461D01*
X75458738Y-79904354D01*
X75451384Y-79941327D01*
X75304775Y-80087680D01*
X75120710Y-80530959D01*
X75120291Y-81010935D01*
X75303582Y-81454535D01*
X75387200Y-81538299D01*
X75387200Y-87875722D01*
X74794722Y-88468200D01*
X71264120Y-88468200D01*
X71234041Y-88455710D01*
X70754065Y-88455291D01*
X70310465Y-88638582D01*
X69970775Y-88977680D01*
X69786710Y-89420959D01*
X69786291Y-89900935D01*
X64710000Y-89900935D01*
X64710000Y-67408967D01*
X80783430Y-67408967D01*
X80783430Y-68481033D01*
X80888900Y-69011268D01*
X81189254Y-69460779D01*
X81638765Y-69761133D01*
X82169000Y-69866603D01*
X82561726Y-69788485D01*
X82387345Y-69860538D01*
X81927154Y-70319927D01*
X81677794Y-70920453D01*
X81677226Y-71570694D01*
X81925538Y-72171655D01*
X82384927Y-72631846D01*
X82985453Y-72881206D01*
X83635694Y-72881774D01*
X84236655Y-72633462D01*
X84696846Y-72174073D01*
X84946206Y-71573547D01*
X84946774Y-70923306D01*
X84698462Y-70322345D01*
X84239073Y-69862154D01*
X83638547Y-69612794D01*
X82988306Y-69612226D01*
X82814791Y-69683921D01*
X83148746Y-69460779D01*
X83439000Y-69026384D01*
X83729254Y-69460779D01*
X84178765Y-69761133D01*
X84709000Y-69866603D01*
X85239235Y-69761133D01*
X85688746Y-69460779D01*
X85979000Y-69026384D01*
X86269254Y-69460779D01*
X86718765Y-69761133D01*
X87249000Y-69866603D01*
X87779235Y-69761133D01*
X88228746Y-69460779D01*
X88529100Y-69011268D01*
X88634570Y-68481033D01*
X88634570Y-67408967D01*
X88529100Y-66878732D01*
X88228746Y-66429221D01*
X87779235Y-66128867D01*
X87249000Y-66023397D01*
X86718765Y-66128867D01*
X86269254Y-66429221D01*
X85979000Y-66863616D01*
X85688746Y-66429221D01*
X85239235Y-66128867D01*
X84709000Y-66023397D01*
X84178765Y-66128867D01*
X83729254Y-66429221D01*
X83439000Y-66863616D01*
X83148746Y-66429221D01*
X82699235Y-66128867D01*
X82169000Y-66023397D01*
X81638765Y-66128867D01*
X81189254Y-66429221D01*
X80888900Y-66878732D01*
X80783430Y-67408967D01*
X64710000Y-67408967D01*
X64710000Y-64362630D01*
X70344990Y-64362630D01*
X70617033Y-65021025D01*
X71120325Y-65525196D01*
X71778245Y-65798389D01*
X72490630Y-65799010D01*
X73149025Y-65526967D01*
X73653196Y-65023675D01*
X73926389Y-64365755D01*
X73926391Y-64362630D01*
X95744990Y-64362630D01*
X96017033Y-65021025D01*
X96520325Y-65525196D01*
X97178245Y-65798389D01*
X97890630Y-65799010D01*
X98549025Y-65526967D01*
X99053196Y-65023675D01*
X99326389Y-64365755D01*
X99327010Y-63653370D01*
X99054967Y-62994975D01*
X98551675Y-62490804D01*
X97893755Y-62217611D01*
X97181370Y-62216990D01*
X96522975Y-62489033D01*
X96018804Y-62992325D01*
X95745611Y-63650245D01*
X95744990Y-64362630D01*
X73926391Y-64362630D01*
X73927010Y-63653370D01*
X73654967Y-62994975D01*
X73151675Y-62490804D01*
X72493755Y-62217611D01*
X71781370Y-62216990D01*
X71122975Y-62489033D01*
X70618804Y-62992325D01*
X70345611Y-63650245D01*
X70344990Y-64362630D01*
X64710000Y-64362630D01*
X64710000Y-52272000D01*
X104990000Y-52272000D01*
X104990000Y-98843000D01*
X104990000Y-98843000D01*
G37*
X104990000Y-98843000D02*
X64710000Y-98843000D01*
X64710000Y-96208795D01*
X66349716Y-96208795D01*
X66598106Y-96809943D01*
X67057637Y-97270278D01*
X67658352Y-97519716D01*
X68308795Y-97520284D01*
X68909943Y-97271894D01*
X69235164Y-96947241D01*
X69557637Y-97270278D01*
X70158352Y-97519716D01*
X70808795Y-97520284D01*
X71409943Y-97271894D01*
X71644715Y-97037532D01*
X72012073Y-97037532D01*
X72110736Y-97304387D01*
X72720461Y-97530908D01*
X73370460Y-97506856D01*
X73859264Y-97304387D01*
X73957927Y-97037532D01*
X72985000Y-96064605D01*
X72012073Y-97037532D01*
X71644715Y-97037532D01*
X71826752Y-96855813D01*
X71832468Y-96857927D01*
X72805395Y-95885000D01*
X73164605Y-95885000D01*
X74137532Y-96857927D01*
X74404387Y-96759264D01*
X74630908Y-96149539D01*
X74628402Y-96081795D01*
X79684716Y-96081795D01*
X79933106Y-96682943D01*
X80392637Y-97143278D01*
X80993352Y-97392716D01*
X81643795Y-97393284D01*
X82244943Y-97144894D01*
X82570164Y-96820241D01*
X82892637Y-97143278D01*
X83493352Y-97392716D01*
X84143795Y-97393284D01*
X84744943Y-97144894D01*
X84979715Y-96910532D01*
X85347073Y-96910532D01*
X85445736Y-97177387D01*
X86055461Y-97403908D01*
X86705460Y-97379856D01*
X87194264Y-97177387D01*
X87292927Y-96910532D01*
X86320000Y-95937605D01*
X85347073Y-96910532D01*
X84979715Y-96910532D01*
X85161752Y-96728813D01*
X85167468Y-96730927D01*
X86140395Y-95758000D01*
X86499605Y-95758000D01*
X87472532Y-96730927D01*
X87739387Y-96632264D01*
X87816481Y-96424750D01*
X99441000Y-96424750D01*
X99441000Y-97535309D01*
X99537673Y-97768698D01*
X99716301Y-97947327D01*
X99949690Y-98044000D01*
X101060250Y-98044000D01*
X101219000Y-97885250D01*
X101219000Y-96266000D01*
X101473000Y-96266000D01*
X101473000Y-97885250D01*
X101631750Y-98044000D01*
X102742310Y-98044000D01*
X102975699Y-97947327D01*
X103154327Y-97768698D01*
X103251000Y-97535309D01*
X103251000Y-96424750D01*
X103092250Y-96266000D01*
X101473000Y-96266000D01*
X101219000Y-96266000D01*
X99599750Y-96266000D01*
X99441000Y-96424750D01*
X87816481Y-96424750D01*
X87965908Y-96022539D01*
X87941856Y-95372540D01*
X87739387Y-94883736D01*
X87472532Y-94785073D01*
X86499605Y-95758000D01*
X86140395Y-95758000D01*
X85167468Y-94785073D01*
X85161278Y-94787361D01*
X84979703Y-94605468D01*
X85347073Y-94605468D01*
X86320000Y-95578395D01*
X87155704Y-94742691D01*
X99441000Y-94742691D01*
X99441000Y-95853250D01*
X99599750Y-96012000D01*
X101219000Y-96012000D01*
X101219000Y-94392750D01*
X101473000Y-94392750D01*
X101473000Y-96012000D01*
X103092250Y-96012000D01*
X103251000Y-95853250D01*
X103251000Y-94742691D01*
X103154327Y-94509302D01*
X102975699Y-94330673D01*
X102742310Y-94234000D01*
X101631750Y-94234000D01*
X101473000Y-94392750D01*
X101219000Y-94392750D01*
X101060250Y-94234000D01*
X99949690Y-94234000D01*
X99716301Y-94330673D01*
X99537673Y-94509302D01*
X99441000Y-94742691D01*
X87155704Y-94742691D01*
X87292927Y-94605468D01*
X87194264Y-94338613D01*
X86584539Y-94112092D01*
X85934540Y-94136144D01*
X85445736Y-94338613D01*
X85347073Y-94605468D01*
X84979703Y-94605468D01*
X84747363Y-94372722D01*
X84146648Y-94123284D01*
X83496205Y-94122716D01*
X82895057Y-94371106D01*
X82569836Y-94695759D01*
X82247363Y-94372722D01*
X81646648Y-94123284D01*
X80996205Y-94122716D01*
X80395057Y-94371106D01*
X79934722Y-94830637D01*
X79685284Y-95431352D01*
X79684716Y-96081795D01*
X74628402Y-96081795D01*
X74606856Y-95499540D01*
X74404387Y-95010736D01*
X74137532Y-94912073D01*
X73164605Y-95885000D01*
X72805395Y-95885000D01*
X71832468Y-94912073D01*
X71826278Y-94914361D01*
X71644703Y-94732468D01*
X72012073Y-94732468D01*
X72985000Y-95705395D01*
X73957927Y-94732468D01*
X73859264Y-94465613D01*
X73249539Y-94239092D01*
X72599540Y-94263144D01*
X72110736Y-94465613D01*
X72012073Y-94732468D01*
X71644703Y-94732468D01*
X71412363Y-94499722D01*
X70811648Y-94250284D01*
X70161205Y-94249716D01*
X69560057Y-94498106D01*
X69234836Y-94822759D01*
X68912363Y-94499722D01*
X68311648Y-94250284D01*
X67661205Y-94249716D01*
X67060057Y-94498106D01*
X66599722Y-94957637D01*
X66350284Y-95558352D01*
X66349716Y-96208795D01*
X64710000Y-96208795D01*
X64710000Y-94196584D01*
X64759313Y-94229534D01*
X65385000Y-94353991D01*
X66010687Y-94229534D01*
X66541120Y-93875111D01*
X66895543Y-93344678D01*
X67020000Y-92718991D01*
X67020000Y-92451009D01*
X73950000Y-92451009D01*
X73950000Y-92718991D01*
X74074457Y-93344678D01*
X74428880Y-93875111D01*
X74959313Y-94229534D01*
X75585000Y-94353991D01*
X76210687Y-94229534D01*
X76741120Y-93875111D01*
X77095543Y-93344678D01*
X77165131Y-92994836D01*
X77209457Y-93217678D01*
X77563880Y-93748111D01*
X78094313Y-94102534D01*
X78720000Y-94226991D01*
X79345687Y-94102534D01*
X79876120Y-93748111D01*
X80230543Y-93217678D01*
X80355000Y-92591991D01*
X80355000Y-92324009D01*
X87285000Y-92324009D01*
X87285000Y-92591991D01*
X87409457Y-93217678D01*
X87763880Y-93748111D01*
X88294313Y-94102534D01*
X88920000Y-94226991D01*
X89545687Y-94102534D01*
X90076120Y-93748111D01*
X90430543Y-93217678D01*
X90555000Y-92591991D01*
X90555000Y-92324009D01*
X90430543Y-91698322D01*
X90076120Y-91167889D01*
X89545687Y-90813466D01*
X88920000Y-90689009D01*
X88294313Y-90813466D01*
X87763880Y-91167889D01*
X87409457Y-91698322D01*
X87285000Y-92324009D01*
X80355000Y-92324009D01*
X80230543Y-91698322D01*
X79876120Y-91167889D01*
X79345687Y-90813466D01*
X78720000Y-90689009D01*
X78094313Y-90813466D01*
X77563880Y-91167889D01*
X77209457Y-91698322D01*
X77139869Y-92048164D01*
X77095543Y-91825322D01*
X76741120Y-91294889D01*
X76210687Y-90940466D01*
X75585000Y-90816009D01*
X74959313Y-90940466D01*
X74428880Y-91294889D01*
X74074457Y-91825322D01*
X73950000Y-92451009D01*
X67020000Y-92451009D01*
X66895543Y-91825322D01*
X66541120Y-91294889D01*
X66010687Y-90940466D01*
X65385000Y-90816009D01*
X64759313Y-90940466D01*
X64710000Y-90973416D01*
X64710000Y-89900935D01*
X69786291Y-89900935D01*
X69969582Y-90344535D01*
X70308680Y-90684225D01*
X70751959Y-90868290D01*
X71231935Y-90868709D01*
X71675535Y-90685418D01*
X72013742Y-90347800D01*
X75184000Y-90347800D01*
X75543646Y-90276262D01*
X75848539Y-90072539D01*
X76991539Y-88929539D01*
X77195262Y-88624646D01*
X77266800Y-88265000D01*
X77266800Y-84709000D01*
X93439655Y-84709000D01*
X93553729Y-85282489D01*
X93878585Y-85768670D01*
X94193366Y-85979000D01*
X93878585Y-86189330D01*
X93553729Y-86675511D01*
X93439655Y-87249000D01*
X93553729Y-87822489D01*
X93878585Y-88308670D01*
X93892913Y-88318243D01*
X93871683Y-88322238D01*
X93655559Y-88461310D01*
X93510569Y-88673510D01*
X93459560Y-88925400D01*
X93459560Y-90652600D01*
X93503838Y-90887917D01*
X93642910Y-91104041D01*
X93855110Y-91249031D01*
X94107000Y-91300040D01*
X96139000Y-91300040D01*
X96374317Y-91255762D01*
X96590441Y-91116690D01*
X96655359Y-91021679D01*
X99441000Y-91021679D01*
X99441000Y-91096321D01*
X99586009Y-91825333D01*
X99998962Y-92443359D01*
X100616988Y-92856312D01*
X101346000Y-93001321D01*
X102075012Y-92856312D01*
X102693038Y-92443359D01*
X103105991Y-91825333D01*
X103251000Y-91096321D01*
X103251000Y-91021679D01*
X103105991Y-90292667D01*
X102693038Y-89674641D01*
X102075012Y-89261688D01*
X101346000Y-89116679D01*
X100616988Y-89261688D01*
X99998962Y-89674641D01*
X99586009Y-90292667D01*
X99441000Y-91021679D01*
X96655359Y-91021679D01*
X96735431Y-90904490D01*
X96786440Y-90652600D01*
X96786440Y-88925400D01*
X96742162Y-88690083D01*
X96603090Y-88473959D01*
X96390890Y-88328969D01*
X96349561Y-88320600D01*
X96367415Y-88308670D01*
X96692271Y-87822489D01*
X96806345Y-87249000D01*
X96692271Y-86675511D01*
X96367415Y-86189330D01*
X96052634Y-85979000D01*
X96367415Y-85768670D01*
X96692271Y-85282489D01*
X96806345Y-84709000D01*
X96692271Y-84135511D01*
X96367415Y-83649330D01*
X96242703Y-83566000D01*
X99428560Y-83566000D01*
X99428560Y-86106000D01*
X99472838Y-86341317D01*
X99611910Y-86557441D01*
X99824110Y-86702431D01*
X100076000Y-86753440D01*
X102616000Y-86753440D01*
X102851317Y-86709162D01*
X103067441Y-86570090D01*
X103212431Y-86357890D01*
X103263440Y-86106000D01*
X103263440Y-83566000D01*
X103219162Y-83330683D01*
X103080090Y-83114559D01*
X102867890Y-82969569D01*
X102616000Y-82918560D01*
X100076000Y-82918560D01*
X99840683Y-82962838D01*
X99624559Y-83101910D01*
X99479569Y-83314110D01*
X99428560Y-83566000D01*
X96242703Y-83566000D01*
X95881234Y-83324474D01*
X95307745Y-83210400D01*
X94938255Y-83210400D01*
X94837520Y-83230437D01*
X94895105Y-83204048D01*
X95337566Y-82727560D01*
X95539943Y-82238980D01*
X95421006Y-81980602D01*
X94045602Y-81980602D01*
X94045602Y-83356006D01*
X94206636Y-83430133D01*
X93878585Y-83649330D01*
X93553729Y-84135511D01*
X93439655Y-84709000D01*
X77266800Y-84709000D01*
X77266800Y-82553059D01*
X77377110Y-82628431D01*
X77629000Y-82679440D01*
X79129000Y-82679440D01*
X79364317Y-82635162D01*
X79580441Y-82496090D01*
X79626969Y-82427994D01*
X79769302Y-82570327D01*
X80002691Y-82667000D01*
X80593250Y-82667000D01*
X80752000Y-82508250D01*
X80752000Y-81534000D01*
X80732000Y-81534000D01*
X80732000Y-81280000D01*
X80752000Y-81280000D01*
X80752000Y-81260000D01*
X81006000Y-81260000D01*
X81006000Y-81280000D01*
X81026000Y-81280000D01*
X81026000Y-81534000D01*
X81006000Y-81534000D01*
X81006000Y-82508250D01*
X81164750Y-82667000D01*
X81755309Y-82667000D01*
X81988698Y-82570327D01*
X82167327Y-82391699D01*
X82193815Y-82327750D01*
X85122000Y-82327750D01*
X85122000Y-82793310D01*
X85218673Y-83026699D01*
X85397302Y-83205327D01*
X85630691Y-83302000D01*
X86221250Y-83302000D01*
X86380000Y-83143250D01*
X86380000Y-82169000D01*
X85280750Y-82169000D01*
X85122000Y-82327750D01*
X82193815Y-82327750D01*
X82264000Y-82158310D01*
X82264000Y-81692750D01*
X82196766Y-81625516D01*
X82530000Y-81691800D01*
X82583273Y-81691800D01*
X82591838Y-81737317D01*
X82730910Y-81953441D01*
X82943110Y-82098431D01*
X83195000Y-82149440D01*
X84445000Y-82149440D01*
X84680317Y-82105162D01*
X84896441Y-81966090D01*
X85041431Y-81753890D01*
X85092440Y-81502000D01*
X85092440Y-81290690D01*
X85122000Y-81290690D01*
X85122000Y-81756250D01*
X85280750Y-81915000D01*
X86380000Y-81915000D01*
X86380000Y-80940750D01*
X86634000Y-80940750D01*
X86634000Y-81915000D01*
X86654000Y-81915000D01*
X86654000Y-82169000D01*
X86634000Y-82169000D01*
X86634000Y-83143250D01*
X86792750Y-83302000D01*
X87383309Y-83302000D01*
X87616698Y-83205327D01*
X87757936Y-83064090D01*
X87792910Y-83118441D01*
X88005110Y-83263431D01*
X88257000Y-83314440D01*
X89757000Y-83314440D01*
X89992317Y-83270162D01*
X90208441Y-83131090D01*
X90353431Y-82918890D01*
X90377102Y-82802000D01*
X90659453Y-82802000D01*
X90773883Y-83078943D01*
X91036673Y-83342192D01*
X91380201Y-83484838D01*
X91752167Y-83485162D01*
X92095943Y-83343117D01*
X92359192Y-83080327D01*
X92501838Y-82736799D01*
X92501883Y-82685489D01*
X92568156Y-82830105D01*
X93044644Y-83272566D01*
X93533224Y-83474943D01*
X93791602Y-83356006D01*
X93791602Y-81980602D01*
X92416198Y-81980602D01*
X92377836Y-82063940D01*
X92360117Y-82021057D01*
X92097327Y-81757808D01*
X91753799Y-81615162D01*
X91706923Y-81615121D01*
X91596401Y-81504599D01*
X91541962Y-81468224D01*
X92297261Y-81468224D01*
X92416198Y-81726602D01*
X93791602Y-81726602D01*
X93791602Y-80351198D01*
X94045602Y-80351198D01*
X94045602Y-81726602D01*
X95421006Y-81726602D01*
X95539943Y-81468224D01*
X95269048Y-80877099D01*
X94792560Y-80434638D01*
X94303980Y-80232261D01*
X94045602Y-80351198D01*
X93791602Y-80351198D01*
X93533224Y-80232261D01*
X92942099Y-80503156D01*
X92499638Y-80979644D01*
X92297261Y-81468224D01*
X91541962Y-81468224D01*
X91349839Y-81339852D01*
X91059000Y-81282000D01*
X90379038Y-81282000D01*
X90360162Y-81181683D01*
X90221090Y-80965559D01*
X90008890Y-80820569D01*
X89757000Y-80769560D01*
X88257000Y-80769560D01*
X88021683Y-80813838D01*
X87805559Y-80952910D01*
X87759031Y-81021006D01*
X87616698Y-80878673D01*
X87383309Y-80782000D01*
X86792750Y-80782000D01*
X86634000Y-80940750D01*
X86380000Y-80940750D01*
X86221250Y-80782000D01*
X85630691Y-80782000D01*
X85397302Y-80878673D01*
X85218673Y-81057301D01*
X85122000Y-81290690D01*
X85092440Y-81290690D01*
X85092440Y-80178782D01*
X99488500Y-80178782D01*
X99791685Y-80857434D01*
X100331501Y-81368403D01*
X100923219Y-81613493D01*
X101219000Y-81497626D01*
X101219000Y-79883000D01*
X101473000Y-79883000D01*
X101473000Y-81497626D01*
X101768781Y-81613493D01*
X102360499Y-81368403D01*
X102900315Y-80857434D01*
X103203500Y-80178782D01*
X103088019Y-79883000D01*
X101473000Y-79883000D01*
X101219000Y-79883000D01*
X99603981Y-79883000D01*
X99488500Y-80178782D01*
X85092440Y-80178782D01*
X85092440Y-80002000D01*
X85048162Y-79766683D01*
X84909090Y-79550559D01*
X84840994Y-79504031D01*
X84983327Y-79361698D01*
X84995123Y-79333218D01*
X99488500Y-79333218D01*
X99603981Y-79629000D01*
X101219000Y-79629000D01*
X101219000Y-78014374D01*
X101473000Y-78014374D01*
X101473000Y-79629000D01*
X103088019Y-79629000D01*
X103203500Y-79333218D01*
X102900315Y-78654566D01*
X102360499Y-78143597D01*
X101768781Y-77898507D01*
X101473000Y-78014374D01*
X101219000Y-78014374D01*
X100923219Y-77898507D01*
X100331501Y-78143597D01*
X99791685Y-78654566D01*
X99488500Y-79333218D01*
X84995123Y-79333218D01*
X85080000Y-79128309D01*
X85080000Y-78537750D01*
X84921250Y-78379000D01*
X83947000Y-78379000D01*
X83947000Y-78399000D01*
X83693000Y-78399000D01*
X83693000Y-78379000D01*
X82718750Y-78379000D01*
X82560000Y-78537750D01*
X82560000Y-79128309D01*
X82656673Y-79361698D01*
X82797910Y-79502936D01*
X82743559Y-79537910D01*
X82703547Y-79596469D01*
X82198539Y-79091461D01*
X82095575Y-79022662D01*
X82115698Y-79014327D01*
X82294327Y-78835699D01*
X82391000Y-78602310D01*
X82391000Y-78136750D01*
X82232250Y-77978000D01*
X81133000Y-77978000D01*
X81133000Y-77998000D01*
X80879000Y-77998000D01*
X80879000Y-77978000D01*
X80859000Y-77978000D01*
X80859000Y-77724000D01*
X80879000Y-77724000D01*
X80879000Y-76749750D01*
X81133000Y-76749750D01*
X81133000Y-77724000D01*
X82232250Y-77724000D01*
X82391000Y-77565250D01*
X82391000Y-77375691D01*
X82560000Y-77375691D01*
X82560000Y-77966250D01*
X82718750Y-78125000D01*
X83693000Y-78125000D01*
X83693000Y-77025750D01*
X83947000Y-77025750D01*
X83947000Y-78125000D01*
X84921250Y-78125000D01*
X85080000Y-77966250D01*
X85080000Y-77375691D01*
X84983327Y-77142302D01*
X84804699Y-76963673D01*
X84571310Y-76867000D01*
X84105750Y-76867000D01*
X83947000Y-77025750D01*
X83693000Y-77025750D01*
X83534250Y-76867000D01*
X83068690Y-76867000D01*
X82835301Y-76963673D01*
X82656673Y-77142302D01*
X82560000Y-77375691D01*
X82391000Y-77375691D01*
X82391000Y-77099690D01*
X82294327Y-76866301D01*
X82115698Y-76687673D01*
X81882309Y-76591000D01*
X81291750Y-76591000D01*
X81133000Y-76749750D01*
X80879000Y-76749750D01*
X80720250Y-76591000D01*
X80129691Y-76591000D01*
X79896302Y-76687673D01*
X79755064Y-76828910D01*
X79720090Y-76774559D01*
X79507890Y-76629569D01*
X79256000Y-76578560D01*
X77756000Y-76578560D01*
X77520683Y-76622838D01*
X77304559Y-76761910D01*
X77159569Y-76974110D01*
X77108560Y-77226000D01*
X77108560Y-78476000D01*
X77152838Y-78711317D01*
X77220328Y-78816200D01*
X76835000Y-78816200D01*
X76475354Y-78887738D01*
X76170461Y-79091461D01*
X75662461Y-79599461D01*
X75458738Y-79904354D01*
X75451384Y-79941327D01*
X75304775Y-80087680D01*
X75120710Y-80530959D01*
X75120291Y-81010935D01*
X75303582Y-81454535D01*
X75387200Y-81538299D01*
X75387200Y-87875722D01*
X74794722Y-88468200D01*
X71264120Y-88468200D01*
X71234041Y-88455710D01*
X70754065Y-88455291D01*
X70310465Y-88638582D01*
X69970775Y-88977680D01*
X69786710Y-89420959D01*
X69786291Y-89900935D01*
X64710000Y-89900935D01*
X64710000Y-67408967D01*
X80783430Y-67408967D01*
X80783430Y-68481033D01*
X80888900Y-69011268D01*
X81189254Y-69460779D01*
X81638765Y-69761133D01*
X82169000Y-69866603D01*
X82561726Y-69788485D01*
X82387345Y-69860538D01*
X81927154Y-70319927D01*
X81677794Y-70920453D01*
X81677226Y-71570694D01*
X81925538Y-72171655D01*
X82384927Y-72631846D01*
X82985453Y-72881206D01*
X83635694Y-72881774D01*
X84236655Y-72633462D01*
X84696846Y-72174073D01*
X84946206Y-71573547D01*
X84946774Y-70923306D01*
X84698462Y-70322345D01*
X84239073Y-69862154D01*
X83638547Y-69612794D01*
X82988306Y-69612226D01*
X82814791Y-69683921D01*
X83148746Y-69460779D01*
X83439000Y-69026384D01*
X83729254Y-69460779D01*
X84178765Y-69761133D01*
X84709000Y-69866603D01*
X85239235Y-69761133D01*
X85688746Y-69460779D01*
X85979000Y-69026384D01*
X86269254Y-69460779D01*
X86718765Y-69761133D01*
X87249000Y-69866603D01*
X87779235Y-69761133D01*
X88228746Y-69460779D01*
X88529100Y-69011268D01*
X88634570Y-68481033D01*
X88634570Y-67408967D01*
X88529100Y-66878732D01*
X88228746Y-66429221D01*
X87779235Y-66128867D01*
X87249000Y-66023397D01*
X86718765Y-66128867D01*
X86269254Y-66429221D01*
X85979000Y-66863616D01*
X85688746Y-66429221D01*
X85239235Y-66128867D01*
X84709000Y-66023397D01*
X84178765Y-66128867D01*
X83729254Y-66429221D01*
X83439000Y-66863616D01*
X83148746Y-66429221D01*
X82699235Y-66128867D01*
X82169000Y-66023397D01*
X81638765Y-66128867D01*
X81189254Y-66429221D01*
X80888900Y-66878732D01*
X80783430Y-67408967D01*
X64710000Y-67408967D01*
X64710000Y-64362630D01*
X70344990Y-64362630D01*
X70617033Y-65021025D01*
X71120325Y-65525196D01*
X71778245Y-65798389D01*
X72490630Y-65799010D01*
X73149025Y-65526967D01*
X73653196Y-65023675D01*
X73926389Y-64365755D01*
X73926391Y-64362630D01*
X95744990Y-64362630D01*
X96017033Y-65021025D01*
X96520325Y-65525196D01*
X97178245Y-65798389D01*
X97890630Y-65799010D01*
X98549025Y-65526967D01*
X99053196Y-65023675D01*
X99326389Y-64365755D01*
X99327010Y-63653370D01*
X99054967Y-62994975D01*
X98551675Y-62490804D01*
X97893755Y-62217611D01*
X97181370Y-62216990D01*
X96522975Y-62489033D01*
X96018804Y-62992325D01*
X95745611Y-63650245D01*
X95744990Y-64362630D01*
X73926391Y-64362630D01*
X73927010Y-63653370D01*
X73654967Y-62994975D01*
X73151675Y-62490804D01*
X72493755Y-62217611D01*
X71781370Y-62216990D01*
X71122975Y-62489033D01*
X70618804Y-62992325D01*
X70345611Y-63650245D01*
X70344990Y-64362630D01*
X64710000Y-64362630D01*
X64710000Y-52272000D01*
X104990000Y-52272000D01*
X104990000Y-98843000D01*
M02*
