M48
;DRILL file {KiCad 4.0.2-4+6225~38~ubuntu14.04.1-stable} date Tue 01 Mar 2016 01:49:53 PM PST
;FORMAT={2:4/ absolute / inch / suppress leading zeros}
FMAT,2
INCH,TZ
T1C0.016
T2C0.030
T3C0.039
T4C0.039
T5C0.040
T6C0.051
T7C0.079
T8C0.091
%
G90
G05
M72
T1
X36050Y-32500
T2
X26850Y-31500
X27850Y-33700
X27950Y-35300
X30050Y-31800
X31500Y-31400
X31500Y-33900
X35000Y-33800
X36150Y-37200
T3
X26766Y-37750
X27750Y-37750
X28734Y-37750
X32016Y-37700
X33000Y-37700
X33984Y-37700
T4
X32350Y-26750
X32800Y-28050
X33350Y-26750
X34350Y-26750
X36976Y-32226
T5
X37450Y-33350
X37450Y-34350
X37450Y-35350
T6
X39900Y-31400
X39900Y-33400
X39900Y-35850
X39900Y-37850
T8
X28400Y-25200
X38400Y-25200
T7
X25742Y-36411G85X25742Y-36490
G05
X29758Y-36411G85X29758Y-36490
G05
X30992Y-36361G85X30992Y-36440
G05
X35008Y-36361G85X35008Y-36440
G05
T0
M30
