G04 #@! TF.FileFunction,Soldermask,Top*
%FSLAX46Y46*%
G04 Gerber Fmt 4.6, Leading zero omitted, Abs format (unit mm)*
G04 Created by KiCad (PCBNEW 4.0.2-4+6225~38~ubuntu14.04.1-stable) date Tue 01 Mar 2016 02:01:37 PM PST*
%MOMM*%
G01*
G04 APERTURE LIST*
%ADD10C,0.100000*%
%ADD11C,2.711400*%
%ADD12R,1.700000X1.900000*%
%ADD13R,1.900000X1.700000*%
%ADD14R,1.543000X0.908000*%
%ADD15R,1.620000X1.310000*%
%ADD16C,2.398980*%
%ADD17R,2.432000X2.127200*%
%ADD18O,2.432000X2.127200*%
%ADD19O,1.901140X2.899360*%
%ADD20R,2.940000X2.940000*%
%ADD21O,2.940000X2.940000*%
%ADD22C,2.400000*%
%ADD23O,2.400000X2.600000*%
G04 APERTURE END LIST*
D10*
D11*
X72136000Y-64008000D03*
X97536000Y-64008000D03*
D12*
X66167000Y-87837000D03*
X66167000Y-85137000D03*
D13*
X71073000Y-77597000D03*
X68373000Y-77597000D03*
D12*
X66167000Y-82630000D03*
X66167000Y-79930000D03*
D13*
X69897000Y-87630000D03*
X72597000Y-87630000D03*
D12*
X80518000Y-71929000D03*
X80518000Y-74629000D03*
X91821000Y-89709000D03*
X91821000Y-92409000D03*
D13*
X80184000Y-81153000D03*
X82884000Y-81153000D03*
X82757000Y-84201000D03*
X80057000Y-84201000D03*
D14*
X75184000Y-81661000D03*
X75184000Y-82931000D03*
X75184000Y-84201000D03*
X75184000Y-85471000D03*
X68834000Y-85471000D03*
X68834000Y-84201000D03*
X68834000Y-82931000D03*
X68834000Y-81661000D03*
X91948000Y-83947000D03*
X91948000Y-85217000D03*
X91948000Y-86487000D03*
X91948000Y-87757000D03*
X85598000Y-87757000D03*
X85598000Y-86487000D03*
X85598000Y-85217000D03*
X85598000Y-83947000D03*
D15*
X78105000Y-74660000D03*
X78105000Y-71390000D03*
D16*
X83312000Y-71247000D03*
X93918602Y-81853602D03*
D17*
X95123000Y-89789000D03*
D18*
X95123000Y-87249000D03*
X95123000Y-84709000D03*
D19*
X84709000Y-67945000D03*
X82169000Y-67945000D03*
X87249000Y-67945000D03*
D20*
X101346000Y-96139000D03*
D21*
X101346000Y-91059000D03*
D20*
X101346000Y-84836000D03*
D21*
X101346000Y-79756000D03*
D22*
X81320000Y-95758000D03*
X83820000Y-95758000D03*
X86320000Y-95758000D03*
D23*
X88920000Y-92458000D03*
X78720000Y-92458000D03*
D22*
X67985000Y-95885000D03*
X70485000Y-95885000D03*
X72985000Y-95885000D03*
D23*
X75585000Y-92585000D03*
X65385000Y-92585000D03*
M02*
